#!OML:ASF F:\VICON\USERDATA\INSTALL\rory3\rory3.ASF
:FULLY-SPECIFIED
:DEGREES
65
root 1.2167897744439444 17.857616555981842 47.371020177995035 -3.8099477132039428 -2.7946340567135373 -5.793555449581945
lfemur -9.431767935942746 0.9696218248147084 -11.429887260983799
ltibia 59.62700009354327
lfoot -8.234247441960486 0.7548561787302623
ltoes -4.96484110157054
rfemur -6.722949524837716 4.5109769586466335 31.077435877463117
rtibia 28.865208698592703
rfoot -20.640634324825154 -11.61728998484854
rtoes 0.14150903696920603
lowerback -1.0 -0.371015286136051 4.171548509962525
upperback 0.13212810866130162 0.40192753477080057 2.317753532800589
thorax -5.481052370542571 0.13341953438160112 1.000178132821013
lowerneck -16.656039406206535 -2.888597643560429 -1.4182286386091407
upperneck 21.40593579222651 -3.6006540413480903 0.014390152950529256
head 9.53614075618163 -1.8040096074222087 -0.22310879623790397
lclavicle 3.033946650657234e-16 -8.766172885498048e-16
lhumerus -28.807652367052206 1.3861354286777918 80.93656926919195
lradius 20.78208036907965
lwrist 8.217070407555699
lhand -28.503072883210017 19.44002359082993
lfingers nan
lthumb -1.9568740628528776 49.31986979025352
rclavicle 4.3023344002026417e-16 -7.7839336595055895e-16
rhumerus -29.412782968021936 -23.735501574363767 -74.54441776819405
rradius 31.01459075268448
rwrist 1.0775196268059641
rhand -17.562666145511148 -1.0
rfingers nan
rthumb 8.718982897072532 -7.625171022184095
66
root 1.1550975024267869 17.8368351107178 46.73792723453988 -4.009550978305359 -2.692087620765641 -6.6937373683141095
lfemur -13.938403812389495 1.5633247947366755 -10.29232716322747
ltibia 60.30012915730948
lfoot -8.349978135328437 0.7922763719661057
ltoes -6.31020834927255
rfemur -3.6094950462653923 4.86889789426894 32.001935314305626
rtibia 29.525975580931206
rfoot -20.06392170394244 -11.967249112549744
rtoes -0.6445363909738386
lowerback -1.0 0.031129315826558035 4.877332068428167
upperback 0.17143837364888595 1.0274395640013636 2.2760736654419764
thorax -5.5261254270770115 0.45225913163851084 0.4077728024492754
lowerneck -16.660801354037893 -2.978758325765782 -1.2653521729489494
upperneck 21.263618535641847 -3.759095425207415 0.028700334740652145
head 9.504646063950952 -1.867145490058566 -0.28241486977253005
lclavicle 3.1534162097510955e-16 -8.706658783342067e-16
lhumerus -29.729413024721197 2.369786788895741 81.16627872885726
lradius 20.264060202149416
lwrist 8.516422882644598
lhand -28.66125164641267 19.453992388775788
lfingers nan
lthumb -2.1765280413118773 49.25984860616103
rclavicle 4.428471051504864e-16 -7.756373481809846e-16
rhumerus -27.76409338401503 -22.07172502796562 -74.65151340683416
rradius 31.090873660987803
rwrist 1.0592023140053106
rhand -17.543104862543494 -1.0
rfingers nan
rthumb 8.745520119670665 -7.365847002828524
67
root 1.1034404748055506 17.825847553823962 46.451511384754696 -4.004106007438181 -2.3116887444547407 -7.668530631830826
lfemur -18.43089286730146 1.719663931330427 -9.788297927585331
ltibia 59.39913249510231
lfoot -9.374146828949184 1.121889813145387
ltoes -7.07382625388998
rfemur -1.3491639100911073 5.161578112410953 32.810042325245455
rtibia 30.33735826976535
rfoot -18.592561071477757 -11.714967277671661
rtoes -1.3153905955571648
lowerback -1.0 0.32311621375870314 5.612215366957589
upperback 0.17434577821521471 1.5502046720552225 2.2441851511605493
thorax -5.5249726270671315 0.7053650348630536 -0.20901460179087028
lowerneck -16.594261220999574 -3.0716897849309346 -1.196182220153573
upperneck 21.182306471263107 -3.920913890363041 0.07444946540772202
head 9.486662819190874 -1.93138674081071 -0.32131422572361407
lclavicle 3.2692907821506374e-16 -8.650360631252258e-16
lhumerus -30.770075935189148 3.288829665209251 81.37500172391962
lradius 20.134922149644137
lwrist 8.771215966922082
lhand -28.957963678081793 19.13969880707863
lfingers nan
lthumb -2.4331650715900595 49.09340349999749
rclavicle 4.539678053589331e-16 -7.742800534451806e-16
rhumerus -26.27412228136311 -20.342974782149682 -74.67320601540168
rradius 31.367924593980206
rwrist 1.229890232986604
rhand -17.520169117941656 -1.0
rfingers nan
rthumb 8.793836305312716 -7.070326535745534
68
root 1.0572192534078302 17.82467691688271 45.839108027114705 -3.908641115200897 -1.7980759875933188 -8.333263760786476
lfemur -22.176217126040164 1.3986305757800077 -10.178055649266605
ltibia 56.91104222793598
lfoot -8.733632853069464 2.4240873060516215
ltoes -9.204023448113945
rfemur -0.0803582441701991 5.261641243621548 33.187669874786685
rtibia 31.543700004679486
rfoot -16.180023099269476 -10.93967971370777
rtoes -1.6450005761035826
lowerback -1.0 0.5337404194524332 6.135736125204092
upperback 0.1348626726934924 1.9123419618044784 2.1479835136466114
thorax -5.483218429930047 0.8700798683489797 -0.7729180256577747
lowerneck -16.473474345156248 -3.1505213422894487 -1.2004625921920369
upperneck 21.199305992863664 -4.059576504708751 0.13910705990259298
head 9.493397435780828 -1.9860999391388905 -0.3374716646177019
lclavicle 3.378619972631773e-16 -8.598780320203369e-16
lhumerus -31.853956852381717 4.084915915794902 81.5458268038603
lradius 20.335299262896733
lwrist 9.016545527662291
lhand -28.914765133941412 19.429746861444137
lfingers nan
lthumb -2.4284219961466187 49.22899997655344
rclavicle 4.640116509638727e-16 -7.738332576483521e-16
rhumerus -25.076671226322173 -18.728783287645104 -74.65217953031667
rradius 31.810290129141496
rwrist 1.3784258983816455
rhand -17.50663593819792 -1.0
rfingers nan
rthumb 8.86662467845622 -6.768954254835664
